<svg id="Layer_1" data-name="Layer 1" xmlns="http://www.w3.org/2000/svg" viewBox="0 0 122.88 73.18"><title>unhappy-customer</title><path d="M26.53,1.23A35.68,35.68,0,0,1,53.69,4.81l.11.07a35.74,35.74,0,0,1,9.71,8.27,9.38,9.38,0,0,0-3.51,2A31.77,31.77,0,0,0,51.8,8.3l-.1-.06a31.82,31.82,0,1,0-7.77,58.31l.2,0a31.72,31.72,0,0,0,18.12-13A9.53,9.53,0,0,0,64,55.83l0,0a11,11,0,0,0,.89.78A35.63,35.63,0,0,1,45.06,70.36l-.06,0A35.79,35.79,0,0,1,26.53,1.23ZM92.49,71a3.49,3.49,0,0,0,1.74,1.84,4.16,4.16,0,0,0,2.82.15,7.68,7.68,0,0,0,2.68-1.37,13.27,13.27,0,0,0,4.91-9.53,28.77,28.77,0,0,0-.06-4.23c-.08-1-.21-2-.38-3.1h10.21A11.09,11.09,0,0,0,119,53.6a7.45,7.45,0,0,0,2.83-2.49,6.27,6.27,0,0,0,1-3.8,9,9,0,0,0-.92-3.5,11,11,0,0,0,.28-4.24,4.93,4.93,0,0,0-1.41-2.87,12.79,12.79,0,0,0-.71-4.77,10,10,0,0,0-2.27-3.56,15.15,15.15,0,0,0-.45-2.53,8.87,8.87,0,0,0-1.27-2.73h0c-1.74-2.45-3.12-2.39-5.32-2.3-.3,0-.63,0-1.14,0H89.77a9.69,9.69,0,0,0-4.48.9,10.66,10.66,0,0,0-3.51,3.06l-.3.85V48.83l1,.27c2.57.7,4.59,2.89,6.15,5.51A38.1,38.1,0,0,1,92.16,63v6a3.76,3.76,0,0,0,.33,2ZM70.6,51.26h5.85a2,2,0,0,0,2-2V22.13a2,2,0,0,0-2-2H66.25a2,2,0,0,0-2,2c2.23,9,2.12,18.06,4.35,27.09a2,2,0,0,0,2,2ZM95.37,70.39a1.07,1.07,0,0,1-.5-.8V62.84l-.06-.39A41.84,41.84,0,0,0,91,53.23c-1.7-2.84-3.9-5.28-6.76-6.41V26.13a6.14,6.14,0,0,1,5.57-2.58h19.89l1.25,0c1.3-.05,2.12-.09,3,1.15h0a6.17,6.17,0,0,1,.86,1.89,12.67,12.67,0,0,1,.4,2.51l.42.89a7.67,7.67,0,0,1,2,2.91,10.57,10.57,0,0,1,.52,4.39l0,.8.69.42a2.11,2.11,0,0,1,.83,1.52,8.92,8.92,0,0,1-.35,3.6l.11,1a6.72,6.72,0,0,1,.85,2.82,3.77,3.77,0,0,1-.59,2.22,4.74,4.74,0,0,1-1.82,1.57,8.13,8.13,0,0,1-3.39.87H101l.3,1.6c.29,1.56.5,3,.62,4.45a24.72,24.72,0,0,1,.06,3.82,10.47,10.47,0,0,1-3.85,7.55,4.8,4.8,0,0,1-1.73.9,1.45,1.45,0,0,1-1,0ZM22.69,49.54a22,22,0,0,0-4.87,4.64h0a.14.14,0,0,1-.17,0l-1.38-1.38a.12.12,0,0,1,0-.15,27.68,27.68,0,0,1,8.94-8.72,21.4,21.4,0,0,1,11.38-3,20.75,20.75,0,0,1,11,3.5,25.26,25.26,0,0,1,7.75,8.35.12.12,0,0,1,0,.15L54,54.22a.12.12,0,0,1-.17,0,19.48,19.48,0,0,0-4.12-4.32A22.23,22.23,0,0,0,36.43,45.4a23.49,23.49,0,0,0-13.74,4.14Zm21.72-29.8c2.37,0,4.28,2.78,4.28,6.21s-1.91,6.2-4.28,6.2-4.28-2.78-4.28-6.2,1.92-6.21,4.28-6.21Zm-17.23,0c2.36,0,4.28,2.78,4.28,6.21s-1.92,6.2-4.28,6.2-4.29-2.78-4.29-6.2,1.92-6.21,4.29-6.21Z"/></svg>