<svg id="Layer_1" data-name="Layer 1" xmlns="http://www.w3.org/2000/svg" viewBox="0 0 122.88 72.45"><title>happy-customer</title><path d="M92.12,7.74a3.55,3.55,0,0,1,1.77-1.86,4.18,4.18,0,0,1,2.85-.16,7.78,7.78,0,0,1,2.71,1.39,13.41,13.41,0,0,1,5,9.65,29.31,29.31,0,0,1-.06,4.27c-.08,1-.21,2.06-.39,3.15h10.34A11.15,11.15,0,0,1,119,25.37a7.48,7.48,0,0,1,2.87,2.52,6.39,6.39,0,0,1,1,3.84,9.06,9.06,0,0,1-.93,3.55,11.23,11.23,0,0,1,.28,4.29,5,5,0,0,1-1.43,2.9,12.91,12.91,0,0,1-.71,4.83,10.28,10.28,0,0,1-2.3,3.6,14.53,14.53,0,0,1-.46,2.56A8.83,8.83,0,0,1,116,56.22h0c-1.76,2.48-3.16,2.42-5.38,2.33-.31,0-.64,0-1.16,0H89.37a9.78,9.78,0,0,1-4.53-.91,10.92,10.92,0,0,1-3.55-3.1l-.3-.86V30.19l1-.27c2.6-.7,4.64-2.92,6.23-5.58a39.58,39.58,0,0,0,3.55-8.51V9.73a3.85,3.85,0,0,1,.33-2ZM26.85,1.24A36.12,36.12,0,0,1,54.33,4.86l.12.08A36.14,36.14,0,0,1,68.79,20.38,9.37,9.37,0,0,0,65,21.74,32,32,0,0,0,52.42,8.4l-.1-.06a32.2,32.2,0,1,0-7.86,59l.2,0A31.91,31.91,0,0,0,56.85,61a9.58,9.58,0,0,0,1.26,2.11,7.53,7.53,0,0,0,.75.87l.32.31a36.08,36.08,0,0,1-13.58,7h-.06a36.22,36.22,0,0,1-18.69-70ZM18,41.44A22.25,22.25,0,0,0,23,46.13a23.81,23.81,0,0,0,13.9,4.19A22.5,22.5,0,0,0,50.29,45.8a20,20,0,0,0,4.18-4.38.12.12,0,0,1,.17,0L56,42.74a.11.11,0,0,1,0,.15,25.45,25.45,0,0,1-7.84,8.45A21.07,21.07,0,0,1,37,54.89,21.8,21.8,0,0,1,25.48,51.8a28.13,28.13,0,0,1-9-8.82.14.14,0,0,1,0-.16l1.4-1.39a.13.13,0,0,1,.18,0ZM44.94,20c2.4,0,4.34,2.81,4.34,6.28s-1.94,6.27-4.34,6.27-4.33-2.81-4.33-6.27S42.55,20,44.94,20ZM27.5,20c2.4,0,4.34,2.81,4.34,6.28s-1.94,6.27-4.34,6.27-4.33-2.81-4.33-6.27S25.11,20,27.5,20ZM70,27.74h5.92A2.07,2.07,0,0,1,78,29.8V57.22a2.07,2.07,0,0,1-2.07,2.06H65.57a2.07,2.07,0,0,1-2.06-2.06c1.78-9.52,3-18.28,4.4-27.42A2.06,2.06,0,0,1,70,27.74ZM95,8.38a1.11,1.11,0,0,0-.51.8V16l-.06.39a42.58,42.58,0,0,1-3.89,9.34c-1.72,2.87-4,5.34-6.85,6.48V53.17a7.79,7.79,0,0,0,2.33,2,7.28,7.28,0,0,0,3.31.61H109.5c.36,0,.83,0,1.26,0,1.33,0,2.16.09,3-1.17h0a6,6,0,0,0,.87-1.91,12.15,12.15,0,0,0,.41-2.54l.42-.9a7.6,7.6,0,0,0,2-2.94A10.66,10.66,0,0,0,118,41.9l0-.82.69-.43a2.1,2.1,0,0,0,.84-1.53,9.11,9.11,0,0,0-.35-3.64l.11-1a7,7,0,0,0,.86-2.86,3.75,3.75,0,0,0-.6-2.24,5,5,0,0,0-1.84-1.6,8.16,8.16,0,0,0-3.43-.87H100.69L101,25.3c.29-1.57.5-3.07.63-4.49a25.39,25.39,0,0,0,.06-3.87,10.58,10.58,0,0,0-3.9-7.64,5.09,5.09,0,0,0-1.74-.92,1.5,1.5,0,0,0-1,0Z"/></svg>