<!DOCTYPE svg PUBLIC "-//W3C//DTD SVG 1.1//EN" "http://www.w3.org/Graphics/SVG/1.1/DTD/svg11.dtd">
<svg height="200px" width="200px" version="1.1" id="SVGRepoEditor" xmlns="http://www.w3.org/2000/svg" xmlns:xlink="http://www.w3.org/1999/xlink" viewBox="0 0 512.009 512.009" xml:space="preserve" fill="#000000" stroke="#000000" stroke-width="0">
<g id="SVGRepo_bgCarrier" stroke-width="0"/> <circle style="fill:#c061cb;" cx="256.005" cy="256.005" r="256.005"/> <path style="opacity:0.1;enable-background:new ;" d="M46.597,290.948c0-141.385,114.615-256,256-256 c47.122,0,91.262,12.745,129.184,34.956C385.924,26.574,324.069,0,256,0C114.615,0,0,114.615,0,256 c0,94.263,50.955,176.612,126.816,221.043C77.425,430.372,46.597,364.264,46.597,290.948z"/> <path style="fill:#FFFFFF;" d="M395.995,234.036L370.168,89.209l-36.742,36.742c-22.829-13.584-49.395-21.261-77.427-21.261 c-38.184,0-74.65,14.266-102.678,40.168c-27.86,25.748-44.943,60.686-48.101,98.377l69.652,5.836 c1.696-20.239,10.89-39.02,25.889-52.882c15.074-13.933,34.692-21.605,55.237-21.605c8.637,0,17.008,1.368,24.897,3.896 l-29.73,29.73L395.995,234.036z"/> <path style="fill:#FFFFFF;" d="M105.221,277.962l25.828,144.829l36.742-36.742c22.829,13.584,49.395,21.261,77.427,21.261 c38.184,0,74.65-14.266,102.678-40.168c27.86-25.748,44.943-60.686,48.101-98.377l-69.652-5.836 c-1.696,20.239-10.89,39.02-25.889,52.882c-15.074,13.933-34.692,21.605-55.237,21.605c-8.637,0-17.008-1.368-24.897-3.896 l29.73-29.73L105.221,277.962z"/> </svg>